<svg width="23" height="17" viewBox="0 0 23 17" fill="none" xmlns="http://www.w3.org/2000/svg">
<path d="M2.06361 17C1.47583 17 0.985167 16.813 0.591611 16.439C0.197204 16.0642 0 15.5975 0 15.0389V1.96107C0 1.4025 0.197204 0.936214 0.591611 0.562214C0.985167 0.187405 1.47583 0 2.06361 0H20.9364C21.5242 0 22.0148 0.187405 22.4084 0.562214C22.8028 0.936214 23 1.4025 23 1.96107V15.0389C23 15.5975 22.8032 16.0638 22.4097 16.4378C22.0153 16.8126 21.5242 17 20.9364 17H2.06361ZM11.5 8.63964L21.7222 2.28893L21.3287 1.21429L11.5 7.28571L1.67133 1.21429L1.27778 2.28893L11.5 8.63964Z" fill="#503F2B"/>
</svg>
